<?xml version="1.0" standalone="no"?>
<!DOCTYPE svg PUBLIC "-//W3C//DTD SVG 20010904//EN"
 "http://www.w3.org/TR/2001/REC-SVG-20010904/DTD/svg10.dtd">
<svg version="1.0" xmlns="http://www.w3.org/2000/svg"
 width="424.000000pt" height="424.000000pt" viewBox="0 0 424.000000 424.000000"
 preserveAspectRatio="xMidYMid meet">
<metadata>
Created by potrace 1.14, written by Peter Selinger 2001-2017
</metadata>
<g transform="translate(0.000000,424.000000) scale(0.100000,-0.100000)"
fill="#000000" stroke="none">
<path d="M0 3229 l0 -1010 34 -14 c18 -8 91 -21 162 -29 125 -15 263 -37 354
-57 25 -6 69 -15 99 -20 29 -5 80 -19 112 -29 32 -11 72 -20 89 -20 41 0 114
-18 185 -46 91 -36 176 -64 194 -64 32 0 40 33 21 76 -20 42 -21 38 25 90 6 6
26 43 45 83 23 48 39 71 50 69 35 -7 17 -200 -25 -263 -14 -19 -26 -47 -27
-62 -3 -26 4 -31 92 -75 52 -26 101 -47 109 -48 17 0 153 -71 147 -77 -2 -2
-41 3 -86 11 -45 9 -130 16 -189 16 -132 0 -264 18 -257 36 8 21 -58 36 -142
33 -42 -1 -93 1 -112 5 -54 11 -160 13 -205 4 -22 -4 -110 -12 -195 -18 -138
-9 -157 -13 -178 -33 -21 -20 -35 -22 -130 -23 -59 0 -122 -1 -139 -2 l-33 -2
0 -879 0 -879 278 -2 278 -1 154 51 c133 44 297 90 323 90 4 0 7 -7 7 -15 0
-8 -17 -19 -43 -25 -107 -28 -153 -43 -161 -51 -16 -15 24 -10 103 11 40 12
75 19 78 17 6 -7 -8 -37 -18 -37 -5 0 -9 -9 -9 -20 0 -20 10 -20 1625 -20
l1625 0 0 46 c0 25 -4 53 -9 62 -7 14 -17 82 -45 302 -13 102 -36 150 -36 76
0 -54 -17 -52 -19 2 -1 26 -2 56 -3 67 -2 38 2 47 17 41 13 -5 15 11 14 109 0
63 2 118 5 123 3 6 1 36 -6 67 -10 50 -9 59 5 66 21 12 40 74 33 105 -4 16 2
43 19 78 25 53 25 54 25 333 l0 281 -24 16 c-14 8 -32 29 -42 45 -13 23 -28
32 -58 37 -30 5 -51 17 -79 48 -36 38 -42 41 -87 40 -42 -2 -49 1 -54 20 -10
37 -5 70 17 115 25 51 62 75 130 84 65 9 84 21 92 59 7 31 36 61 80 83 20 11
20 16 23 898 l2 887 -39 0 c-40 0 -65 16 -75 48 -3 9 -19 25 -36 34 -16 9 -35
29 -42 43 l-11 25 -721 0 -721 0 0 -52 0 -53 -80 -40 c-76 -38 -85 -40 -171
-40 -73 0 -94 3 -108 18 -10 9 -23 17 -31 17 -19 0 -25 23 -25 91 l0 59 -1090
0 -1090 0 0 -1011z m4036 833 c16 -10 34 -48 34 -70 0 -27 -27 -49 -42 -34 -7
7 -23 12 -38 12 -27 0 -38 6 -58 32 -29 37 61 89 104 60z m81 -166 c40 -20 70
-63 56 -77 -5 -5 -22 -11 -37 -12 -33 -2 -67 35 -72 79 -3 31 5 52 15 36 3 -5
21 -17 38 -26z m-321 -41 c18 -14 41 -25 52 -25 10 0 29 -11 42 -25 l23 -25
-36 -15 c-42 -17 -93 -20 -102 -5 -10 16 -91 12 -105 -5 -33 -40 -121 0 -128
57 -4 34 20 48 85 48 26 0 55 5 63 10 27 17 72 11 106 -15z m267 -165 c18 -17
18 -18 -12 -22 -39 -6 -67 12 -58 36 8 21 42 14 70 -14z m-1665 -49 c3 -27 0
-32 -14 -29 -10 1 -17 6 -16 11 1 4 2 19 2 33 0 37 24 25 28 -15z m1689 -31
c-6 -22 17 -45 46 -45 44 0 47 -52 5 -79 -23 -14 -57 29 -58 71 0 17 -5 35
-10 38 -8 5 -7 11 1 21 16 20 22 17 16 -6z m-1509 -47 c-10 -2 -18 -13 -18
-23 0 -13 5 -17 15 -14 8 4 15 2 15 -4 0 -15 -24 -21 -35 -8 -6 6 -10 21 -11
34 0 18 5 22 25 21 17 -1 20 -3 9 -6z m1282 -36 c58 -30 65 -37 65 -63 l0 -29
-75 -2 c-93 -2 -114 -8 -173 -44 -26 -16 -56 -29 -67 -29 -18 0 -40 26 -40 48
0 23 113 122 161 141 40 16 61 12 129 -22z m-2478 1 c32 -6 63 -16 69 -24 14
-17 8 -46 -11 -50 -8 -2 -51 -13 -95 -25 -88 -24 -140 -28 -156 -12 -5 5 -12
25 -15 44 -4 27 0 39 22 62 29 31 44 31 186 5z m1330 -66 c9 -20 17 -44 17
-52 1 -8 5 -78 10 -155 8 -139 6 -160 -23 -184 -18 -15 -36 -7 -124 60 -70 53
-108 64 -277 83 -93 11 -100 13 -103 34 -5 31 11 47 72 76 41 19 54 32 65 61
12 34 15 36 44 29 18 -4 37 -6 42 -6 6 1 48 4 95 5 83 4 122 16 146 47 7 8 10
20 7 27 -3 7 -1 13 3 13 5 0 17 -17 26 -38z m1429 -84 c10 -13 18 -26 19 -29
0 -11 -76 -46 -92 -42 -28 7 -21 39 15 67 17 14 34 26 35 26 2 0 12 -10 23
-22z m-381 -134 c13 -14 13 -17 -4 -30 -29 -21 -123 -19 -134 4 -12 21 -7 53
9 63 15 9 109 -18 129 -37z m-820 -9 c7 -8 16 -12 21 -9 13 8 12 2 -21 -63
-17 -34 -37 -64 -45 -67 -16 -6 -18 0 -15 57 1 26 -3 39 -14 43 -16 6 -22 35
-9 47 12 13 71 7 83 -8z m-1458 -29 c11 -12 18 -38 18 -64 0 -54 -23 -65 -107
-52 -32 6 -61 10 -65 10 -4 0 -16 10 -28 22 -22 24 -27 70 -7 85 44 36 160 35
189 -1z m1538 14 c0 -5 -4 -10 -10 -10 -5 0 -10 5 -10 10 0 6 5 10 10 10 6 0
10 -4 10 -10z m194 -106 c24 -23 3 -95 -36 -122 -10 -7 -16 -18 -13 -23 4 -5
2 -9 -2 -9 -5 0 -28 -18 -51 -40 -30 -29 -50 -40 -73 -40 l-31 0 7 63 c10 103
41 156 91 157 12 0 27 7 34 15 16 20 54 19 74 -1z m-1546 -126 c20 -20 15 -58
-7 -58 -11 0 -23 -4 -26 -10 -9 -14 -55 -13 -55 1 0 7 -7 17 -15 23 -14 10
-14 13 0 34 18 25 82 31 103 10z m-1113 -23 c214 -1 222 -2 241 -30 15 -23 15
-28 0 -62 -28 -62 -32 -68 -57 -71 -13 -2 -28 -11 -34 -19 -8 -10 -35 -17 -82
-20 -69 -5 -72 -5 -101 25 -16 17 -31 35 -33 41 -2 6 -25 13 -51 16 -42 5 -50
3 -82 -26 -20 -17 -36 -39 -36 -49 0 -11 -9 -34 -20 -53 -17 -29 -18 -39 -9
-68 19 -55 24 -58 76 -46 73 15 151 -21 174 -80 10 -27 13 -27 97 -9 50 10 62
10 62 0 0 -7 -5 -16 -10 -19 -6 -4 -8 -11 -5 -16 4 -5 -2 -12 -12 -15 -10 -3
-27 -10 -38 -15 -11 -5 -33 -11 -50 -13 -55 -8 -73 -18 -85 -47 -7 -16 -16
-29 -20 -29 -7 0 -70 32 -182 92 -23 12 -36 29 -43 55 -9 32 -15 38 -36 35
-13 -1 -32 -12 -41 -23 -17 -20 -18 -20 -18 -2 0 10 -13 39 -28 64 -41 65 -62
114 -62 144 0 25 2 26 38 20 39 -6 119 17 134 39 13 19 9 67 -9 96 -36 61 30
105 137 92 30 -3 113 -6 185 -7z m3005 -16 c9 -16 8 -24 -3 -37 -8 -9 -18 -38
-21 -64 -8 -53 -25 -62 -45 -24 -15 27 -8 76 17 119 19 32 37 35 52 6z m248
-77 c3 -17 -7 -26 -51 -46 -30 -14 -66 -36 -80 -50 -23 -23 -29 -25 -52 -14
-46 21 -33 50 38 85 68 34 116 52 132 49 6 -2 11 -12 13 -24z m-860 -36 c7 -4
11 -14 8 -22 -3 -8 -1 -14 5 -14 6 0 6 -6 0 -19 -14 -25 -2 -87 19 -106 15
-14 22 -14 41 -5 20 11 21 10 16 -9 -3 -11 0 -21 5 -21 7 0 9 21 5 60 -3 33
-1 60 3 60 5 0 12 9 15 20 9 29 51 25 86 -7 16 -16 29 -34 29 -40 0 -7 5 -13
10 -13 6 0 10 -13 10 -30 0 -23 7 -33 30 -45 49 -25 40 -55 -25 -86 -49 -24
-56 -25 -81 -13 -14 8 -35 14 -45 14 -10 0 -21 5 -24 10 -4 6 -12 5 -21 -4 -8
-8 -35 -18 -61 -22 -43 -6 -48 -5 -70 22 -17 21 -22 37 -19 59 17 112 17 110
-4 132 -21 23 -28 49 -10 38 6 -4 10 6 10 22 0 24 4 28 28 28 15 0 33 -4 40
-9z m-474 -20 c36 -15 58 -63 36 -76 -9 -6 -9 -13 -1 -29 7 -12 9 -26 6 -31
-7 -11 34 -100 45 -100 5 0 14 -22 21 -50 7 -27 18 -50 24 -50 6 0 12 -11 13
-25 2 -31 -5 -32 -32 -1 -11 13 -39 29 -61 35 -46 12 -164 9 -185 -4 -8 -5
-21 -10 -28 -11 -8 -2 -17 -6 -20 -9 -4 -4 22 -3 58 1 121 16 190 6 190 -29 0
-5 -9 -2 -20 8 -24 22 -110 24 -180 5 -25 -7 -58 -13 -75 -15 -66 -5 -238 -40
-215 -43 14 -2 32 -10 40 -17 13 -11 18 -11 33 0 11 8 26 11 35 8 10 -4 13 -2
8 5 -5 8 1 8 24 1 30 -11 46 -26 37 -35 -3 -3 -14 0 -24 7 -14 8 -28 9 -49 2
-27 -9 -29 -14 -35 -69 -5 -52 -6 -54 -7 -16 -1 24 -9 56 -17 72 -15 29 -17
30 -94 30 -129 0 -201 -35 -201 -97 0 -46 21 -125 37 -141 7 -7 13 -17 13 -22
0 -5 16 -12 35 -16 19 -3 35 -10 35 -16 0 -5 5 -6 11 -3 5 4 18 0 28 -9 9 -8
35 -18 56 -22 22 -3 42 -10 43 -15 2 -5 11 -9 20 -9 8 0 24 -8 34 -17 18 -16
18 -17 -4 -40 -12 -13 -27 -23 -34 -23 -7 0 -25 -12 -39 -27 l-26 -28 -28 33
c-24 28 -34 33 -60 29 -26 -4 -31 -2 -31 14 0 10 -7 19 -15 19 -22 0 -73 112
-81 179 -3 31 -13 63 -21 73 -8 9 -10 18 -5 22 5 3 6 28 2 57 -4 28 -5 65 -3
83 2 17 5 83 6 146 4 122 19 189 48 216 12 11 49 20 104 25 47 5 95 14 107 20
12 6 35 8 57 4 59 -11 317 -1 349 14 1 0 18 -5 36 -13z m-1483 -30 c-8 -10 -9
-16 -1 -21 5 -3 10 -24 10 -45 0 -52 -33 -90 -88 -100 -53 -9 -67 6 -75 78 -6
53 -6 53 28 68 19 8 53 14 75 14 22 0 40 5 40 10 0 6 5 10 11 10 8 0 8 -4 0
-14z m2865 -161 c4 -8 3 -23 0 -32 -6 -15 -9 -15 -28 4 -21 22 -18 43 8 43 8
0 17 -7 20 -15z m-959 -145 c5 -28 -12 -41 -38 -31 -13 5 -18 10 -11 10 6 1
12 10 12 22 0 24 33 23 37 -1z m1048 1 c7 -12 14 -212 8 -228 -7 -17 -34 -16
-67 1 -23 12 -24 15 -11 26 8 7 15 23 15 35 0 12 7 39 16 60 8 20 16 55 17 76
1 38 10 49 22 30z m-1461 -41 c-6 -6 -21 -6 -39 -1 -30 9 -30 9 10 10 25 1 36
-2 29 -9z m132 -29 c8 0 12 -5 9 -11 -3 -5 2 -10 12 -10 38 -1 57 -27 61 -89
4 -52 1 -63 -22 -94 -15 -19 -25 -41 -24 -48 2 -8 -2 -13 -8 -12 -7 1 -9 -8
-6 -22 3 -18 0 -25 -12 -25 -9 0 -16 -6 -16 -14 0 -12 -34 -30 -52 -27 -5 1
-8 -5 -8 -12 0 -8 -11 -24 -25 -37 -23 -22 -29 -23 -58 -12 -19 7 -51 12 -74
12 -22 0 -42 3 -45 6 -4 3 0 21 8 39 8 19 14 46 14 60 0 14 5 25 10 25 6 0 10
-6 10 -12 0 -9 3 -9 8 -2 4 5 33 16 65 23 55 12 69 30 24 32 -17 0 -13 4 16
17 27 12 40 26 48 51 11 32 8 102 -6 146 -6 20 1 22 71 16z m238 -83 c12 -59
7 -94 -16 -115 -41 -36 -45 -35 -46 20 -1 32 2 46 8 38 4 -8 6 -20 3 -28 -8
-20 24 -16 32 5 10 22 12 55 4 62 -3 3 -9 17 -13 32 -5 21 -3 26 8 22 7 -3 17
-19 20 -36z m-619 -61 c21 -45 39 -88 38 -95 -1 -7 14 -23 32 -35 52 -34 51
-52 -2 -55 -23 -1 -54 -9 -67 -17 -17 -11 -42 -15 -85 -13 -60 3 -73 12 -49
36 7 7 17 64 24 127 17 172 44 185 109 52z m645 -66 c-35 -89 -47 -103 -67
-76 -15 21 -18 49 -4 40 18 -11 58 40 66 82 4 24 11 45 16 49 5 3 10 15 11 27
1 13 3 9 5 -9 3 -20 -8 -63 -27 -113z m-620 59 c6 -11 8 -20 6 -20 -3 0 -10 9
-16 20 -6 11 -8 20 -6 20 3 0 10 -9 16 -20z m193 -87 c-7 -2 -19 -2 -25 0 -7
3 -2 5 12 5 14 0 19 -2 13 -5z m-383 -49 c0 -9 -68 -34 -92 -33 -13 0 -2 6 25
13 26 7 50 16 54 19 8 8 13 9 13 1z m977 -40 c0 -41 -2 -45 -14 -28 -7 10 -13
30 -13 46 0 17 5 28 13 28 10 0 14 -14 14 -46z m-107 -44 c0 -5 -4 -10 -10
-10 -5 0 -10 5 -10 10 0 6 5 10 10 10 6 0 10 -4 10 -10z m0 -70 c0 -5 -4 -10
-10 -10 -5 0 -10 5 -10 10 0 6 5 10 10 10 6 0 10 -4 10 -10z m885 -78 c0 -18
-20 -15 -23 4 -3 10 1 15 10 12 7 -3 13 -10 13 -16z m-1560 -32 c-3 -5 -14
-10 -24 -10 -9 0 -22 -5 -28 -11 -6 -6 -19 -9 -29 -6 -16 4 -15 5 4 6 12 1 22
7 22 16 0 10 10 15 31 15 17 0 28 -4 24 -10z m645 -50 c8 -15 6 -21 -9 -29
-16 -9 -18 -7 -17 23 1 36 9 37 26 6z m-1963 -26 c-3 -3 -12 -4 -19 -1 -8 3
-5 6 6 6 11 1 17 -2 13 -5z m1485 -21 c-6 -2 -10 -9 -6 -14 3 -5 -4 -9 -16 -9
-17 0 -20 -4 -15 -22 6 -18 5 -21 -5 -11 -9 8 -19 9 -32 2 -20 -11 -38 -5 -38
13 0 5 7 8 15 4 8 -3 15 -1 15 4 0 19 33 40 63 39 18 0 26 -3 19 -6z m-262
-42 c0 -5 8 -7 18 -4 10 2 24 -2 31 -11 10 -12 9 -14 -8 -9 -12 3 -21 1 -21
-6 0 -7 -7 -8 -23 0 -25 11 -32 39 -10 39 7 0 13 -4 13 -9z m951 -35 c5 3 16
-2 25 -10 8 -9 11 -16 6 -16 -5 0 -12 3 -16 8 -4 4 -13 7 -19 7 -7 0 -12 7
-13 15 0 9 1 10 3 2 3 -7 9 -10 14 -6z m558 10 c42 -15 52 -36 18 -36 -14 0
-39 -6 -57 -13 -26 -12 -38 -12 -68 -1 -21 7 -46 14 -57 15 -11 1 0 5 25 9 39
6 40 7 13 8 -18 1 -33 6 -33 12 0 5 13 7 30 4 19 -4 30 -2 30 5 0 14 56 13 99
-3z m-484 -78 c139 -77 310 -181 313 -190 2 -4 8 -8 13 -8 11 0 12 33 2 44
-16 16 -11 38 7 33 23 -6 96 65 85 83 -5 9 -9 9 -14 1 -4 -6 -29 -15 -55 -20
-36 -7 -56 -17 -76 -41 l-28 -33 -56 32 c-31 18 -56 37 -56 42 0 6 -4 8 -9 4
-5 -3 -16 2 -24 10 -9 8 -19 15 -24 15 -4 0 -19 10 -33 21 -14 11 -20 18 -14
15 17 -8 147 -20 227 -20 37 0 67 -3 67 -6 0 -7 67 -2 90 7 17 6 106 4 130 -2
8 -3 21 -14 28 -26 12 -19 11 -20 -6 -15 -22 7 -39 -19 -20 -30 7 -4 14 -2 16
4 8 24 33 11 47 -22 18 -42 32 -53 38 -29 4 17 4 17 12 -1 6 -13 3 -21 -8 -27
-15 -9 -13 -41 3 -64 11 -16 19 -110 11 -124 -6 -9 -11 -10 -15 -3 -4 6 -14 8
-23 5 -11 -5 -14 -3 -8 6 6 10 3 11 -13 2 -17 -9 -25 -7 -47 13 -14 13 -50 37
-80 52 -50 27 -69 44 -46 44 14 0 53 81 47 96 -8 21 -25 17 -56 -15 -20 -19
-28 -36 -26 -55 3 -21 1 -24 -11 -14 -11 9 -12 13 -1 21 9 6 8 7 -5 3 -10 -3
-24 -6 -30 -6 -6 0 -1 -9 11 -20 12 -11 25 -20 30 -20 4 0 17 -8 28 -18 10
-10 28 -21 38 -25 10 -4 17 -9 15 -11 -10 -9 -119 -13 -119 -5 0 5 9 9 20 9
11 0 20 4 20 9 0 6 -12 9 -27 8 -22 -2 -28 -8 -27 -25 0 -20 -20 -35 -42 -31
-5 1 -18 1 -29 0 -15 -1 -17 -4 -7 -10 10 -6 5 -12 -18 -21 -17 -7 -33 -10
-37 -6 -3 3 -2 6 4 6 6 0 10 11 9 25 -1 26 -10 32 -22 14 -3 -6 0 -15 7 -20 9
-6 10 -9 2 -9 -6 0 -14 -10 -16 -22 -3 -17 -5 -14 -6 10 0 17 -6 32 -13 32 -6
0 -3 6 7 14 18 13 18 14 -9 9 -20 -4 -27 -2 -22 6 4 6 2 11 -3 11 -6 0 -11 -6
-11 -12 0 -10 -2 -10 -9 0 -6 11 -9 9 -14 -7 -2 -11 0 -22 7 -25 6 -2 3 -5 -6
-5 -11 -1 -18 6 -18 17 0 10 -3 22 -7 26 -11 10 -11 76 -1 70 4 -3 8 -12 8
-20 0 -8 6 -14 13 -14 6 0 4 -5 -6 -11 -9 -6 -15 -15 -11 -20 10 -17 32 9 32
37 0 19 -3 22 -9 13 -7 -11 -9 -10 -9 4 0 16 -12 22 -35 17 -27 -6 -73 -4 -69
2 3 5 0 8 -5 8 -6 0 -11 -4 -11 -10 0 -5 -4 -10 -10 -10 -5 0 -7 7 -3 16 3 9
13 14 23 11 10 -2 24 -1 31 4 15 9 -1 13 -47 11 -12 0 -21 6 -21 14 0 8 4 14
8 14 4 0 6 11 5 24 0 14 -6 22 -13 19 -16 -6 -17 -23 -1 -23 6 0 -1 -13 -17
-30 -27 -29 -50 -35 -27 -7 20 24 -42 57 -65 34 -2 -3 5 -8 16 -12 24 -7 27
-20 7 -28 -10 -4 -13 -1 -9 9 3 8 -1 14 -11 14 -17 0 -21 12 -8 24 7 8 8 13
11 41 0 9 11 20 24 25 20 8 20 9 2 10 -16 0 -17 2 -6 9 8 5 11 16 8 25 -4 9
-3 16 1 16 14 0 8 45 -7 58 -32 27 33 0 124 -50z m249 27 c-4 -8 -11 -12 -16
-9 -6 4 -5 10 3 15 19 12 19 11 13 -6z m-236 -20 c-3 -3 -9 2 -12 12 -6 14 -5
15 5 6 7 -7 10 -15 7 -18z m-1131 -73 c-10 -10 -17 -31 -17 -46 0 -15 -4 -25
-9 -22 -5 3 -12 -10 -15 -30 -4 -19 -14 -38 -22 -41 -19 -7 -18 -23 1 -23 8 0
15 -9 15 -20 0 -11 -4 -20 -10 -20 -5 0 -10 7 -10 15 0 18 -16 20 -26 4 -3 -6
0 -15 7 -20 27 -17 45 -9 54 23 12 38 35 50 30 16 -2 -13 -8 -38 -14 -57 -6
-18 -10 -36 -9 -40 0 -3 0 -19 -1 -36 -2 -29 -3 -29 -12 -7 -5 13 -7 28 -3 33
3 5 -2 19 -11 31 -17 23 -17 23 -13 -9 4 -25 1 -33 -11 -33 -10 0 -12 -3 -5
-8 6 -4 14 -17 18 -30 4 -12 12 -19 18 -16 11 7 3 -155 -13 -240 -5 -26 -6
-52 -3 -57 3 -5 0 -9 -6 -9 -7 0 -9 -8 -5 -21 5 -15 4 -19 -4 -15 -10 7 -16
-19 -12 -53 2 -7 -3 -10 -9 -6 -6 4 -17 1 -25 -5 -12 -10 -15 -9 -15 9 0 12
-4 20 -9 17 -5 -3 -8 -14 -6 -24 12 -60 16 -72 24 -72 5 0 12 8 14 18 4 14 5
14 6 -3 0 -11 -7 -34 -17 -50 -11 -17 -25 -54 -31 -83 -7 -28 -17 -52 -22 -52
-5 0 -8 -3 -8 -7 4 -25 -3 -43 -16 -43 -8 0 -15 -7 -15 -15 0 -9 -9 -15 -21
-15 -18 0 -19 -2 -9 -15 7 -9 10 -18 6 -22 -3 -3 -6 -2 -6 4 0 15 -38 23 -44
9 -2 -6 -5 -3 -5 7 -1 9 -9 17 -18 17 -15 0 -16 -2 -3 -10 10 -7 11 -10 2 -10
-7 0 -15 7 -19 15 -5 14 -8 13 -20 -4 -8 -12 -20 -18 -29 -14 -14 5 -15 3 -5
-15 8 -15 8 -22 1 -22 -5 0 -10 7 -10 16 0 11 -5 14 -16 10 -9 -3 -27 -9 -41
-12 -18 -5 -21 -9 -11 -15 9 -6 7 -9 -9 -9 -31 0 -39 38 -19 79 9 17 12 31 6
31 -5 0 -10 5 -10 11 0 6 6 9 14 6 8 -3 16 2 19 15 7 24 -2 50 -14 42 -5 -3
-9 0 -9 7 0 7 8 9 21 6 25 -7 58 18 36 26 -7 3 -5 6 6 6 9 1 17 5 17 11 0 5
-6 7 -13 4 -7 -2 -22 6 -32 18 -11 13 -13 17 -5 11 19 -18 43 -16 37 1 -3 8
-1 17 6 20 7 4 -4 4 -23 1 l-35 -5 33 29 c37 34 38 39 15 58 -17 13 -16 14 7
9 22 -4 23 -4 8 8 -22 16 -23 26 -3 26 8 0 15 5 15 10 0 6 -4 10 -10 10 -17 0
-11 38 9 57 14 13 17 23 11 33 -5 8 -10 25 -10 37 0 28 -18 40 -27 18 -3 -10
0 -21 7 -25 10 -6 10 -12 0 -26 -10 -16 -11 -16 -6 -1 3 9 1 17 -5 17 -7 0 -8
-12 -4 -30 6 -29 2 -34 -31 -29 -4 0 -11 -5 -16 -13 -7 -9 -8 -8 -4 5 3 10 6
25 6 33 0 9 5 12 10 9 6 -3 10 4 10 16 0 21 -1 21 -19 5 -11 -10 -25 -15 -32
-10 -9 5 -10 0 -5 -20 5 -19 2 -28 -9 -33 -9 -3 -14 -12 -11 -19 3 -8 -1 -14
-8 -14 -26 0 17 162 69 263 8 16 15 40 15 53 0 37 74 110 175 174 48 30 115
81 148 113 33 31 65 57 70 57 5 0 23 11 39 25 34 28 51 26 25 -3z m10 -54 c-3
-7 -5 -2 -5 12 0 14 2 19 5 13 2 -7 2 -19 0 -25z m10 -50 c-3 -7 -5 -2 -5 12
0 14 2 19 5 13 2 -7 2 -19 0 -25z m1168 -68 c-3 -5 -14 -10 -23 -10 -15 0 -15
2 -2 10 20 13 33 13 25 0z m-355 -54 c0 -2 -7 -7 -16 -10 -8 -3 -12 -2 -9 4 6
10 25 14 25 6z m1104 -66 c-6 -6 -15 -6 -24 0 -13 9 -13 11 0 20 18 11 39 -5
24 -20z m-647 0 c-3 -11 1 -27 10 -35 8 -8 10 -15 4 -15 -5 0 -16 7 -24 15
-16 15 -12 55 5 55 6 0 8 -9 5 -20z m-250 4 c-3 -3 -12 -4 -19 -1 -8 3 -5 6 6
6 11 1 17 -2 13 -5z m703 -7 c8 -7 16 -25 17 -42 2 -25 1 -27 -6 -10 -5 12
-16 27 -25 34 -17 14 -22 31 -8 31 4 0 14 -6 22 -13z m-613 -3 c-3 -3 -12 -4
-19 -1 -8 3 -5 6 6 6 11 1 17 -2 13 -5z m93 -25 c0 -13 -5 -16 -16 -12 -13 5
-13 7 -2 14 10 7 10 9 1 9 -7 0 -13 4 -13 10 0 5 7 7 15 4 8 -4 15 -15 15 -25z
m-200 -19 c0 -5 -2 -10 -4 -10 -3 0 -8 5 -11 10 -3 6 -1 10 4 10 6 0 11 -4 11
-10z m255 -18 c-3 -3 -11 0 -18 7 -9 10 -8 11 6 5 10 -3 15 -9 12 -12z m-265
-12 c0 -5 -9 -6 -20 -3 -11 3 -17 9 -15 14 7 10 35 1 35 -11z m83 -27 c-7 -2
-19 -2 -25 0 -7 3 -2 5 12 5 14 0 19 -2 13 -5z m-1072 -34 c-5 -13 -10 -19
-10 -12 -1 15 10 45 15 40 3 -2 0 -15 -5 -28z m1084 -8 c-3 -6 -11 -11 -16
-11 -5 0 -4 6 3 14 14 16 24 13 13 -3z m-215 -11 c0 -5 -2 -10 -4 -10 -3 0 -8
5 -11 10 -3 6 -1 10 4 10 6 0 11 -4 11 -10z m230 -10 c0 -5 -5 -10 -11 -10 -5
0 -7 5 -4 10 3 6 8 10 11 10 2 0 4 -4 4 -10z m-117 -7 c-7 -2 -19 -2 -25 0 -7
3 -2 5 12 5 14 0 19 -2 13 -5z m77 -15 c0 -10 -4 -18 -10 -18 -5 0 -10 6 -10
13 0 8 -4 7 -11 -3 -9 -13 -10 -13 -6 2 3 9 1 19 -6 21 -7 2 0 4 15 3 20 -1
28 -6 28 -18z m25 -17 c3 -5 2 -12 -3 -15 -5 -3 -9 1 -9 9 0 17 3 19 12 6z
m-32 -31 c-3 -11 -9 -20 -14 -20 -5 0 -9 9 -9 20 0 11 6 20 14 20 9 0 12 -7 9
-20z m-113 6 c0 -2 -7 -7 -16 -10 -8 -3 -12 -2 -9 4 6 10 25 14 25 6z m77 -2
c-3 -3 -12 -4 -19 -1 -8 3 -5 6 6 6 11 1 17 -2 13 -5z m-637 -24 c0 -5 -2 -10
-4 -10 -3 0 -8 5 -11 10 -3 6 -1 10 4 10 6 0 11 -4 11 -10z m585 1 c3 -6 -3
-9 -14 -8 -11 0 -17 5 -15 9 7 11 22 10 29 -1z m65 -11 c20 -20 15 -25 -14
-14 -9 3 -16 12 -16 20 0 19 6 18 30 -6z m-37 -20 c3 -11 1 -18 -4 -14 -5 3
-9 12 -9 20 0 20 7 17 13 -6z m-43 -1 c0 -5 -4 -8 -9 -4 -5 3 -16 -2 -25 -10
-11 -12 -13 -22 -6 -40 6 -16 6 -25 0 -25 -6 0 -10 7 -10 16 0 13 -7 15 -35
11 -19 -3 -35 -2 -35 4 0 5 9 9 21 9 11 0 18 4 15 9 -4 5 4 7 16 3 17 -4 20
-2 15 12 -4 10 -3 15 3 11 6 -3 10 -1 10 4 0 6 9 11 20 11 11 0 20 -5 20 -11z
m17 -21 c-3 -8 -6 -5 -6 6 -1 11 2 17 5 13 3 -3 4 -12 1 -19z m-707 2 c0 -5
-4 -10 -10 -10 -5 0 -10 5 -10 10 0 6 5 10 10 10 6 0 10 -4 10 -10z m730 -33
c8 -3 2 -5 -15 -4 -37 1 -47 6 -40 18 4 5 13 5 23 0 9 -4 24 -11 32 -14z
m-635 4 c3 -6 -3 -9 -14 -8 -11 0 -17 5 -15 9 7 11 22 10 29 -1z m359 -9 c3
-5 -1 -9 -9 -9 -8 0 -12 4 -9 9 3 4 7 8 9 8 2 0 6 -4 9 -8z m-548 -54 c-8 -24
-15 -34 -16 -22 0 20 22 75 28 69 2 -2 -3 -23 -12 -47z m80 22 c8 0 14 -9 14
-20 0 -12 -5 -17 -14 -14 -8 3 -21 -5 -30 -17 -8 -13 -19 -19 -23 -15 -4 4 0
12 10 17 22 13 22 29 0 29 -17 1 -17 1 0 11 9 5 18 18 18 27 1 15 2 15 6 0 2
-10 11 -18 19 -18z m19 20 c3 -5 -1 -10 -10 -10 -9 0 -13 5 -10 10 3 6 8 10
10 10 2 0 7 -4 10 -10z m-55 -10 c0 -5 -5 -10 -11 -10 -5 0 -7 5 -4 10 3 6 8
10 11 10 2 0 4 -4 4 -10z m593 -22 c-3 -15 -9 -25 -14 -23 -4 3 -3 17 3 30 14
31 18 28 11 -7z m34 0 c-3 -7 -5 -2 -5 12 0 14 2 19 5 13 2 -7 2 -19 0 -25z
m190 26 c-3 -3 -12 -4 -19 -1 -8 3 -5 6 6 6 11 1 17 -2 13 -5z m-320 -10 c-3
-3 -12 -4 -19 -1 -8 3 -5 6 6 6 11 1 17 -2 13 -5z m158 -14 c3 -5 1 -10 -4
-10 -6 0 -11 5 -11 10 0 6 2 10 4 10 3 0 8 -4 11 -10z m-750 -18 c-3 -3 -11 0
-18 7 -9 10 -8 11 6 5 10 -3 15 -9 12 -12z m-688 -34 c-3 -7 -5 -2 -5 12 0 14
2 19 5 13 2 -7 2 -19 0 -25z m76 7 c-3 -9 -8 -14 -10 -11 -3 3 -2 9 2 15 9 16
15 13 8 -4z m1147 11 c0 -3 -4 -8 -10 -11 -5 -3 -10 -1 -10 4 0 6 5 11 10 11
6 0 10 -2 10 -4z m307 -12 c2 -5 -5 -10 -16 -10 -11 0 -17 5 -14 14 6 14 25
12 30 -4z m-161 -51 c-4 -9 -9 -13 -13 -10 -3 4 -12 -1 -19 -11 -11 -15 -12
-13 -9 17 5 41 38 71 43 40 2 -11 1 -28 -2 -36z m-683 15 c-9 -15 -23 -8 -23
12 0 17 2 19 14 8 8 -7 12 -16 9 -20z m-1845 -1 c3 -12 -4 -17 -22 -17 -27 0
-37 24 -13 33 19 8 32 2 35 -16z m1915 8 c4 -8 2 -17 -3 -20 -6 -4 -10 3 -10
14 0 25 6 27 13 6z m-656 -20 c-4 -8 -11 -15 -17 -15 -7 0 -7 6 0 21 13 23 26
19 17 -6z m508 7 c-3 -3 -11 0 -18 7 -9 10 -8 11 6 5 10 -3 15 -9 12 -12z
m383 -50 c18 -37 33 -71 32 -75 -1 -5 11 -20 25 -33 27 -25 27 -25 3 -20 -12
3 -56 12 -95 20 -40 8 -81 20 -90 26 -15 8 -12 9 11 4 21 -5 27 -4 22 5 -4 6
-14 11 -22 11 -17 0 -19 48 -3 84 11 22 44 43 74 45 6 1 25 -29 43 -67z m482
47 c0 -6 -6 -9 -14 -6 -7 3 -19 0 -25 -6 -7 -7 -11 -7 -11 -1 0 16 11 24 32
24 10 0 18 -5 18 -11z m-283 -22 c-12 -13 -23 -22 -25 -21 -8 5 24 44 35 44 7
0 2 -10 -10 -23z m217 -26 c-6 -6 -24 19 -24 34 1 6 7 1 15 -9 8 -11 12 -22 9
-25z m-104 5 c0 -3 -4 -8 -10 -11 -5 -3 -10 -1 -10 4 0 6 5 11 10 11 6 0 10
-2 10 -4z m170 -12 c0 -8 -5 -12 -10 -9 -6 4 -8 11 -5 16 9 14 15 11 15 -7z
m-665 -4 c3 -5 1 -10 -4 -10 -6 0 -11 5 -11 10 0 6 2 10 4 10 3 0 8 -4 11 -10z
m462 4 c-3 -3 -12 -4 -19 -1 -8 3 -5 6 6 6 11 1 17 -2 13 -5z m-97 -15 c0 -20
-24 -59 -37 -59 -20 0 -16 20 5 21 10 0 12 3 5 6 -20 7 -15 23 5 16 14 -6 15
-4 5 8 -10 13 -10 16 2 16 8 0 15 -4 15 -8z m174 -11 c-3 -4 -9 -8 -15 -8 -5
0 -9 4 -9 8 0 5 7 9 15 9 8 0 12 -4 9 -9z m86 -8 c0 -5 -4 -10 -10 -10 -5 0
-10 5 -10 10 0 6 5 10 10 10 6 0 10 -4 10 -10z m-185 -10 c3 -5 1 -10 -4 -10
-6 0 -11 5 -11 10 0 6 2 10 4 10 3 0 8 -4 11 -10z m95 -5 c0 -2 -7 -8 -15 -15
-12 -10 -15 -10 -15 2 0 8 7 15 15 15 8 0 15 -1 15 -2z m-235 -35 c0 -7 -6
-14 -13 -16 -7 -1 -8 0 -2 3 7 3 7 10 -2 21 -11 13 -11 14 2 10 8 -2 15 -11
15 -18z m275 10 c0 -5 -4 -10 -9 -10 -6 0 -13 5 -16 10 -3 6 1 10 9 10 9 0 16
-4 16 -10z m-200 -20 c0 -5 -5 -10 -11 -10 -5 0 -7 5 -4 10 3 6 8 10 11 10 2
0 4 -4 4 -10z m250 -10 c0 -5 -2 -10 -4 -10 -3 0 -8 5 -11 10 -3 6 -1 10 4 10
6 0 11 -4 11 -10z m-173 -6 c-3 -3 -12 -4 -19 -1 -8 3 -5 6 6 6 11 1 17 -2 13
-5z m-107 -14 c-8 -5 -19 -10 -25 -10 -5 0 -3 5 5 10 8 5 20 10 25 10 6 0 3
-5 -5 -10z m147 -26 c-3 -3 -12 -4 -19 -1 -8 3 -5 6 6 6 11 1 17 -2 13 -5z
m-480 -26 c-3 -8 -6 -5 -6 6 -1 11 2 17 5 13 3 -3 4 -12 1 -19z m-1384 -27
c-4 -15 3 -20 39 -25 23 -4 50 -11 58 -16 13 -9 12 -12 -4 -25 -12 -9 -24 -11
-35 -5 -9 5 -48 10 -86 11 -54 2 -76 -1 -97 -15 -42 -28 -37 -48 10 -40 29 4
43 2 55 -11 10 -9 15 -21 12 -26 -4 -5 -1 -9 5 -9 12 0 39 -11 128 -51 40 -18
54 -41 32 -54 -6 -4 -77 5 -158 18 -81 14 -179 31 -219 37 -96 15 -103 26 -52
78 22 23 44 42 50 42 6 0 25 11 42 24 56 41 157 83 204 85 16 1 20 -4 16 -18z
m1370 2 c-7 -2 -19 -2 -25 0 -7 3 -2 5 12 5 14 0 19 -2 13 -5z m-760 -10 c-7
-2 -21 -2 -30 0 -10 3 -4 5 12 5 17 0 24 -2 18 -5z m852 -13 c-3 -5 -12 -10
-18 -10 -7 0 -6 4 3 10 19 12 23 12 15 0z m-91 -34 c-3 -9 -10 -13 -16 -10 -5
3 -4 12 3 20 15 18 22 13 13 -10z m-24 -26 c13 -8 13 -10 -2 -10 -9 0 -20 5
-23 10 -8 13 5 13 25 0z m-763 -6 c-3 -3 -12 -4 -19 -1 -8 3 -5 6 6 6 11 1 17
-2 13 -5z m123 -24 c0 -6 -5 -10 -11 -10 -5 0 -7 5 -4 10 3 6 -1 10 -9 10 -9
0 -16 5 -16 10 0 7 6 7 20 0 11 -6 20 -15 20 -20z m87 14 c-3 -3 -12 -4 -19
-1 -8 3 -5 6 6 6 11 1 17 -2 13 -5z m-157 -24 c0 -5 -5 -10 -11 -10 -5 0 -7 5
-4 10 3 6 8 10 11 10 2 0 4 -4 4 -10z m670 0 c0 -5 -7 -10 -16 -10 -8 0 -12 5
-9 10 3 6 10 10 16 10 5 0 9 -4 9 -10z m1870 -37 c0 -23 -4 -33 -9 -27 -9 8
-4 64 5 64 2 0 4 -17 4 -37z m-1830 7 c-8 -5 -19 -10 -25 -10 -5 0 -3 5 5 10
8 5 20 10 25 10 6 0 3 -5 -5 -10z m-1194 -27 c-10 -10 -19 5 -10 18 6 11 8 11
12 0 2 -7 1 -15 -2 -18z m722 -13 c3 -8 -5 -7 -26 6 -17 10 -28 22 -26 26 7
11 46 -13 52 -32z m353 -3 c-10 -9 -11 -8 -5 6 3 10 9 15 12 12 3 -3 0 -11 -7
-18z m-67 -2 c-4 -8 -8 -15 -10 -15 -2 0 -4 7 -4 15 0 8 4 15 10 15 5 0 7 -7
4 -15z m121 -5 c-3 -5 -14 -10 -23 -9 -14 0 -13 2 3 9 27 11 27 11 20 0z m52
-146 c-3 -3 -12 -4 -19 -1 -8 3 -5 6 6 6 11 1 17 -2 13 -5z m1721 -6 c-2 -6
-10 -14 -16 -16 -7 -2 -10 2 -6 12 7 18 28 22 22 4z"/>
<path d="M2208 2443 c7 -3 16 -2 19 1 4 3 -2 6 -13 5 -11 0 -14 -3 -6 -6z"/>
<path d="M1851 2399 c-48 -34 -48 -48 -1 -29 17 7 81 23 143 35 l112 23 -106
1 c-103 1 -107 0 -148 -30z"/>
<path d="M1928 1983 c7 -3 16 -2 19 1 4 3 -2 6 -13 5 -11 0 -14 -3 -6 -6z"/>
<path d="M2560 2380 c0 -12 8 -12 35 0 18 8 17 9 -7 9 -16 1 -28 -3 -28 -9z"/>
<path d="M3090 1590 c0 -5 7 -7 15 -4 8 4 15 8 15 10 0 2 -7 4 -15 4 -8 0 -15
-4 -15 -10z"/>
<path d="M3115 1560 c-17 -7 -17 -9 -2 -9 32 -2 17 -17 -15 -16 -23 0 -34 -5
-36 -17 -2 -13 3 -18 17 -18 12 0 21 -4 21 -10 0 -5 7 -10 15 -10 17 0 18 2 9
24 -3 9 -11 13 -17 9 -6 -3 -7 -1 -3 5 5 9 13 9 26 2 18 -10 19 -8 10 14 -5
13 -6 27 -3 30 8 8 3 7 -22 -4z"/>
<path d="M3176 1541 c-19 -7 -19 -8 0 -13 13 -3 21 0 21 8 0 8 -1 14 -1 13 -1
0 -10 -4 -20 -8z"/>
<path d="M3186 1461 c-3 -5 1 -11 9 -15 9 -3 15 0 15 9 0 16 -16 20 -24 6z"/>
<path d="M3241 1454 c0 -11 3 -14 6 -6 3 7 2 16 -1 19 -3 4 -6 -2 -5 -13z"/>
<path d="M3336 1443 c-6 -14 -5 -15 5 -6 7 7 10 15 7 18 -3 3 -9 -2 -12 -12z"/>
<path d="M3708 1425 c-6 -14 -14 -25 -18 -25 -4 0 -10 -9 -13 -20 -3 -13 0
-20 8 -20 7 0 21 -3 31 -7 10 -3 15 -2 12 3 -4 5 -3 28 2 52 8 46 -4 56 -22
17z"/>
<path d="M3250 1420 c-9 -6 -10 -10 -3 -10 6 0 15 5 18 10 8 12 4 12 -15 0z"/>
<path d="M3330 1396 c0 -2 7 -7 16 -10 8 -3 12 -2 9 4 -6 10 -25 14 -25 6z"/>
<path d="M3435 1350 c3 -5 11 -10 16 -10 6 0 7 5 4 10 -3 6 -11 10 -16 10 -6
0 -7 -4 -4 -10z"/>
<path d="M3490 1315 c7 -8 17 -15 22 -15 5 0 3 7 -6 15 -8 8 -18 15 -22 15 -3
0 -1 -7 6 -15z"/>
<path d="M1976 1326 c3 -9 11 -16 16 -16 13 0 5 23 -10 28 -7 2 -10 -2 -6 -12z"/>
<path d="M1972 1185 c-10 -21 -9 -25 4 -25 8 0 12 5 9 10 -3 6 1 13 9 16 19 7
21 24 3 24 -8 0 -19 -11 -25 -25z"/>
<path d="M1698 1143 c6 -2 18 -2 25 0 6 3 1 5 -13 5 -14 0 -19 -2 -12 -5z"/>
<path d="M1976 1140 c-11 -3 -15 -9 -10 -12 5 -3 18 -2 28 2 11 3 15 9 10 12
-5 3 -18 2 -28 -2z"/>
<path d="M1890 1100 c0 -6 7 -10 15 -10 8 0 15 2 15 4 0 2 -7 6 -15 10 -8 3
-15 1 -15 -4z"/>
<path d="M1980 1100 c0 -5 5 -10 11 -10 5 0 7 5 4 10 -3 6 -8 10 -11 10 -2 0
-4 -4 -4 -10z"/>
<path d="M1975 1070 c-3 -5 3 -10 15 -10 12 0 18 5 15 10 -3 6 -10 10 -15 10
-5 0 -12 -4 -15 -10z"/>
<path d="M1914 1044 c2 -11 -4 -22 -13 -26 -14 -6 -14 -7 2 -7 21 -1 34 26 19
41 -7 7 -10 5 -8 -8z"/>
<path d="M1957 1030 c-14 -17 -14 -20 -2 -20 8 0 15 6 15 14 0 8 6 17 13 19 6
3 7 6 2 6 -6 1 -18 -8 -28 -19z"/>
<path d="M1986 1015 c5 -12 -2 -15 -32 -16 -35 0 -37 -1 -15 -10 32 -13 61 -2
61 22 0 10 -4 19 -10 19 -5 0 -7 -7 -4 -15z"/>
<path d="M1690 984 c0 -22 2 -25 15 -14 8 7 15 19 15 26 0 8 -7 14 -15 14 -10
0 -15 -10 -15 -26z"/>
<path d="M1885 979 c-11 -16 -1 -19 13 -3 7 8 8 14 3 14 -5 0 -13 -5 -16 -11z"/>
<path d="M1925 957 c5 -16 4 -18 -3 -8 -8 11 -14 10 -31 -6 -21 -19 -21 -20
-3 -41 10 -11 31 -24 47 -28 26 -6 27 -5 14 8 -8 9 -16 14 -18 12 -2 -1 -10 4
-18 12 -9 8 -12 18 -8 22 4 4 10 1 12 -5 6 -18 23 -16 23 2 0 8 5 15 10 15 19
0 10 28 -10 33 -17 4 -20 2 -15 -16z"/>
<path d="M1868 875 c-8 -9 3 -45 13 -45 5 0 9 6 9 13 0 17 -15 39 -22 32z"/>
<path d="M1826 761 c-4 -5 -2 -12 3 -15 5 -4 12 -2 15 3 4 5 2 12 -3 15 -5 4
-12 2 -15 -3z"/>
<path d="M1660 480 c0 -5 5 -10 10 -10 6 0 10 5 10 10 0 6 -4 10 -10 10 -5 0
-10 -4 -10 -10z"/>
<path d="M2328 863 c7 -3 16 -2 19 1 4 3 -2 6 -13 5 -11 0 -14 -3 -6 -6z"/>
<path d="M2420 760 c0 -5 7 -7 15 -4 8 4 15 8 15 10 0 2 -7 4 -15 4 -8 0 -15
-4 -15 -10z"/>
<path d="M4190 4229 c0 -15 33 -69 42 -69 4 0 8 18 8 40 0 36 -2 40 -25 40
-14 0 -25 -5 -25 -11z"/>
<path d="M735 20 c-48 -18 -49 -18 -17 -19 20 -1 45 7 59 19 31 24 23 24 -42
0z"/>
<path d="M900 16 c0 -9 7 -16 16 -16 9 0 14 5 12 12 -6 18 -28 21 -28 4z"/>
</g>
</svg>
